<?xml version="1.0" standalone="no"?>
<!DOCTYPE svg PUBLIC "-//W3C//DTD SVG 20010904//EN"
 "http://www.w3.org/TR/2001/REC-SVG-20010904/DTD/svg10.dtd">
<svg version="1.0" xmlns="http://www.w3.org/2000/svg"
 width="168.000000pt" height="148.000000pt" viewBox="0 0 168.000000 148.000000"
 preserveAspectRatio="xMidYMid meet">
<metadata>
Created by potrace 1.10, written by Peter Selinger 2001-2011
</metadata>
<g transform="translate(0.000000,148.000000) scale(0.050000,-0.050000)"
fill="#0000ff" stroke="none">
<path d="M2245 2845 c-43 -52 -112 -151 -154 -220 l-77 -125 -112 0 c-235 0
-649 -186 -863 -388 -101 -95 -169 -141 -260 -174 -196 -71 -196 -201 1 -425
110 -125 333 -206 239 -86 -68 86 -28 103 123 53 153 -51 176 -71 198 -171 36
-160 -15 -234 -125 -179 -34 16 -64 30 -68 30 -21 0 -2 -99 30 -150 20 -33 43
-86 51 -119 42 -170 236 -179 333 -16 117 195 177 218 354 136 112 -52 157
-120 133 -199 -27 -92 -353 -386 -577 -520 -87 -53 -104 -70 -77 -81 20 -7 38
-4 42 8 4 11 16 21 26 21 244 0 913 615 1125 1035 53 104 61 405 10 373 -9 -6
-17 4 -17 21 0 53 -138 311 -265 494 -155 225 -166 299 -71 455 80 132 95 138
146 64 120 -172 373 -486 362 -449 -20 65 -272 531 -312 577 -19 22 -45 60
-58 85 -33 63 -48 58 -137 -50z m-221 -607 c29 -20 57 -30 61 -22 5 7 5 1 1
-14 -4 -16 31 -64 77 -107 66 -62 78 -82 56 -96 -23 -14 -24 -22 -4 -42 14
-14 25 -48 25 -76 1 -34 6 -43 17 -25 21 32 44 6 83 -96 15 -38 38 -77 52 -85
14 -9 20 -42 14 -85 -6 -46 -1 -70 14 -70 16 0 22 -27 17 -80 -5 -44 1 -83 11
-86 11 -4 5 -13 -14 -20 -19 -7 -34 -4 -34 7 0 10 -18 19 -40 19 -33 0 -39
-12 -37 -76 7 -170 -115 -276 -213 -184 -27 26 -50 39 -50 28 0 -10 -7 -9 -15
3 -43 61 -361 127 -349 72 3 -18 -8 -22 -35 -13 -31 10 -38 5 -29 -19 7 -17 2
-31 -10 -31 -12 0 -22 18 -22 40 0 43 -39 57 -41 15 -1 -14 -10 -3 -21 24 -11
26 -14 79 -8 117 8 54 4 66 -18 58 -18 -7 -37 10 -53 49 -18 43 -30 53 -42 33
-12 -19 -16 -17 -17 10 0 23 -9 31 -25 22 -14 -8 -18 -7 -10 2 8 9 0 33 -17
53 -19 20 -28 53 -22 76 9 34 1 41 -48 41 -38 0 -58 -10 -58 -30 0 -19 -19
-30 -50 -30 -31 0 -50 11 -50 30 0 22 -23 30 -88 30 -62 0 -91 9 -100 32 -8
20 -25 27 -45 20 -29 -12 -30 -9 -2 33 16 25 44 45 61 45 17 0 47 15 67 32 20
18 53 38 72 44 19 7 35 22 35 33 0 28 74 27 91 -1 8 -12 38 -17 67 -11 30 6
67 2 83 -8 22 -15 19 -18 -15 -14 -24 3 -44 -4 -45 -15 0 -11 25 -20 56 -20
42 0 55 8 47 28 -7 20 -3 24 16 12 20 -12 23 -8 14 17 -8 20 -3 33 14 33 33 0
96 69 79 87 -8 7 -2 13 12 13 20 0 20 7 -2 33 -24 30 -23 31 18 10 38 -20 45
-19 45 6 0 17 -16 31 -35 31 -20 0 -26 7 -14 15 11 8 20 29 19 45 -2 86 350
131 454 58z m-544 -130 c0 -4 -16 -24 -36 -44 -20 -20 -51 -57 -69 -83 l-33
-47 -69 61 c-77 67 -81 60 77 113 70 23 130 23 130 0z m-673 -298 c-6 -16 -29
-30 -50 -30 -26 0 -34 -8 -24 -25 10 -17 4 -16 -19 2 -40 32 -46 72 -9 58 14
-5 43 -2 65 6 22 9 42 17 44 18 3 0 0 -12 -7 -29z"/>
<path d="M1346 2078 c-45 -13 -61 -28 -53 -48 17 -45 58 -36 95 20 18 28 30
49 27 48 -3 -1 -34 -10 -69 -20z"/>
<path d="M2304 2556 c-34 -34 -30 -115 6 -129 17 -6 31 -31 32 -54 3 -40 3
-41 13 -3 5 22 27 51 47 66 46 32 48 71 7 113 -38 37 -72 40 -105 7z"/>
<path d="M2309 2278 c-21 -33 26 -71 53 -44 23 23 9 66 -22 66 -10 0 -24 -10
-31 -22z"/>
<path d="M2520 2246 c-116 -48 -105 -199 19 -243 114 -39 211 104 136 202 -28
37 -110 59 -155 41z"/>
</g>
</svg>
